# xmcd
#
# Track frame offsets:
#	150
#	16234
#	38808
#	53350
#	72124
#	90004
#	102835
#	126051
#	142482
#	153625
#	171717
#	186272
#	206756
#	220899
#	237510
#	254465
#
# Disc length: 3572 seconds
#
# Revision: 1
# Processed by: cddbd v1.5.2PL0 Copyright (c) Steve Scherf et al.
# Submitted via: audiograbber 1.83.01
#
DISCID=e70df210
DTITLE=Various Artistes - Angels - The Divine Voices of Today's Earth Angels
DYEAR=1900
DGENRE=Vocal
TTITLE0=Libera - Stay With Me
TTITLE1=Sissel - Seven Angels
TTITLE2=Secret Garden - Nocturne
TTITLE3=Origa - Class No.
TTITLE4=Charlotte Church - The Flower Duet from Lakme
TTITLE5=Frida Boccara - Cent Mille Chanson
TTITLE6=Madredeus - O Sonho
TTITLE7=Emily Von Evera - Vission
TTITLE8=Milla Jovovich - In A Glade
TTITLE9=Izzy - Song of Our Homeland
TTITLE10=Colette Baron-Reid - Breath of You
TTITLE11=Delerium feat. Aude - Paris
TTITLE12=Mediaeval Baebes - The Wolly and The Ivy
TTITLE13=Hughes De Courson - El Vuelo
TTITLE14=Graeme Revell and Roger Mason - The Ocean
TTITLE15=Sarah Brightman - Ave Maria
EXTD=
EXTT0=
EXTT1=
EXTT2=
EXTT3=
EXTT4=
EXTT5=
EXTT6=
EXTT7=
EXTT8=
EXTT9=
EXTT10=
EXTT11=
EXTT12=
EXTT13=
EXTT14=
EXTT15=
PLAYORDER=
